<svg width="48" height="48" viewBox="0 0 48 48" fill="none" xmlns="http://www.w3.org/2000/svg">
  <defs>
    <linearGradient id="leadGradient" x1="0%" y1="0%" x2="100%" y2="100%">
      <stop offset="0%" style="stop-color:#F59E0B;stop-opacity:1" />
      <stop offset="100%" style="stop-color:#D97706;stop-opacity:1" />
    </linearGradient>
  </defs>
  <rect width="48" height="48" rx="12" fill="url(#leadGradient)" opacity="0.1"/>
  <path d="M12 36L16 20L20 28L24 12L28 24L32 16L36 32" stroke="url(#leadGradient)" stroke-width="3" stroke-linecap="round" stroke-linejoin="round" fill="none"/>
  <circle cx="16" cy="20" r="3" fill="url(#leadGradient)"/>
  <circle cx="20" cy="28" r="3" fill="url(#leadGradient)"/>
  <circle cx="24" cy="12" r="3" fill="url(#leadGradient)"/>
  <circle cx="28" cy="24" r="3" fill="url(#leadGradient)"/>
  <circle cx="32" cy="16" r="3" fill="url(#leadGradient)"/>
  <circle cx="36" cy="32" r="3" fill="url(#leadGradient)"/>
  <path d="M8 8L12 8L16 8L20 8L24 8L28 8L32 8L36 8L40 8" stroke="url(#leadGradient)" stroke-width="2" stroke-linecap="round" opacity="0.3"/>
  <path d="M8 40L12 40L16 40L20 40L24 40L28 40L32 40L36 40L40 40" stroke="url(#leadGradient)" stroke-width="2" stroke-linecap="round" opacity="0.3"/>
</svg>