<svg width="48" height="48" viewBox="0 0 48 48" fill="none" xmlns="http://www.w3.org/2000/svg">
  <defs>
    <linearGradient id="scheduleGradient" x1="0%" y1="0%" x2="100%" y2="100%">
      <stop offset="0%" style="stop-color:#EC4899;stop-opacity:1" />
      <stop offset="100%" style="stop-color:#BE185D;stop-opacity:1" />
    </linearGradient>
  </defs>
  <rect width="48" height="48" rx="12" fill="url(#scheduleGradient)" opacity="0.1"/>
  <rect x="12" y="8" width="24" height="20" rx="4" fill="none" stroke="url(#scheduleGradient)" stroke-width="2"/>
  <path d="M12 16H36M12 20H36M12 24H36" stroke="url(#scheduleGradient)" stroke-width="1.5" stroke-linecap="round"/>
  <circle cx="18" cy="12" r="1" fill="url(#scheduleGradient)"/>
  <circle cx="30" cy="12" r="1" fill="url(#scheduleGradient)"/>
  <path d="M20 12H28" stroke="url(#scheduleGradient)" stroke-width="1.5" stroke-linecap="round"/>
  <rect x="16" y="32" width="4" height="4" rx="1" fill="url(#scheduleGradient)"/>
  <rect x="22" y="32" width="4" height="4" rx="1" fill="url(#scheduleGradient)"/>
  <rect x="28" y="32" width="4" height="4" rx="1" fill="url(#scheduleGradient)"/>
  <rect x="16" y="38" width="4" height="4" rx="1" fill="url(#scheduleGradient)"/>
  <rect x="22" y="38" width="4" height="4" rx="1" fill="url(#scheduleGradient)"/>
  <rect x="28" y="38" width="4" height="4" rx="1" fill="url(#scheduleGradient)"/>
  <path d="M8 32H40M8 38H40" stroke="url(#scheduleGradient)" stroke-width="1" stroke-linecap="round" opacity="0.3"/>
</svg>