<svg viewBox="0 0 64 64" fill="none" xmlns="http://www.w3.org/2000/svg">
  <!-- Female Executive Person Base -->
  <circle cx="32" cy="20" r="12" fill="#FCE7F3" stroke="#F9A8D4" stroke-width="2"/>
  
  <!-- Professional Dress Body -->
  <path d="M20 35 L44 35 L44 55 C44 58 41 60 38 60 L26 60 C23 60 20 58 20 55 Z" fill="#7C3AED" stroke="#A78BFA" stroke-width="1.5"/>
  
  <!-- Elegant Necklace -->
  <circle cx="32" cy="38" r="2" fill="#F59E0B" stroke="#FCD34D" stroke-width="0.5"/>
  <path d="M30 38 Q32 40 34 38" stroke="#F59E0B" stroke-width="1" fill="none" stroke-linecap="round"/>
  
  <!-- Professional Hair Style -->
  <path d="M20 12 Q32 8 44 12 Q42 18 40 20 Q38 18 36 20 Q34 18 32 20 Q30 18 28 20 Q26 18 24 20 Q22 18 20 20 Z" fill="#92400E" stroke="#D97706" stroke-width="0.5"/>
  
  <!-- Success Aura -->
  <circle cx="32" cy="20" r="16" fill="none" stroke="#EC4899" stroke-width="1" opacity="0.6"/>
  
  <!-- Achievement Stars -->
  <path d="M48 12 L49 15 L52 15 L49.5 17 L50.5 20 L48 18 L45.5 20 L46.5 17 L44 15 L47 15 Z" fill="#FCD34D"/>
  <path d="M16 12 L17 15 L20 15 L17.5 17 L18.5 20 L16 18 L13.5 20 L14.5 17 L12 15 L15 15 Z" fill="#FCD34D"/>
</svg> 