<svg viewBox="0 0 64 64" fill="none" xmlns="http://www.w3.org/2000/svg">
  <!-- Tech Professional Person Base -->
  <circle cx="32" cy="20" r="12" fill="#1E40AF" stroke="#60A5FA" stroke-width="2"/>
  
  <!-- Tech Hoodie Body -->
  <path d="M20 35 L44 35 L44 55 C44 58 41 60 38 60 L26 60 C23 60 20 58 20 55 Z" fill="#1F2937" stroke="#4B5563" stroke-width="1.5"/>
  
  <!-- Hoodie Hood -->
  <path d="M20 35 Q32 25 44 35 L44 40 Q32 30 20 40 Z" fill="#374151" stroke="#6B7280" stroke-width="1"/>
  
  <!-- Tech Glasses -->
  <circle cx="28" cy="18" r="3" fill="none" stroke="#10B981" stroke-width="1.5"/>
  <circle cx="36" cy="18" r="3" fill="none" stroke="#10B981" stroke-width="1.5"/>
  <path d="M31 18 L33 18" stroke="#10B981" stroke-width="1" stroke-linecap="round"/>
  
  <!-- Code Symbols -->
  <text x="48" y="15" font-family="monospace" font-size="8" fill="#F59E0B" text-anchor="middle">&lt;/&gt;</text>
  <text x="16" y="15" font-family="monospace" font-size="8" fill="#F59E0B" text-anchor="middle">{ }</text>
  
  <!-- Tech Aura -->
  <circle cx="32" cy="20" r="16" fill="none" stroke="#3B82F6" stroke-width="1" opacity="0.6"/>
  
  <!-- Binary Code Particles -->
  <text x="50" y="25" font-family="monospace" font-size="6" fill="#10B981" text-anchor="middle">1</text>
  <text x="14" y="25" font-family="monospace" font-size="6" fill="#10B981" text-anchor="middle">0</text>
  
  <!-- Tech Innovation Dots -->
  <circle cx="52" cy="32" r="2" fill="#8B5CF6"/>
  <circle cx="12" cy="32" r="2" fill="#8B5CF6"/>
</svg> 